<svg enable-background="new 0 0 32 32" height="32" viewBox="0 0 32 32" width="32" xmlns="http://www.w3.org/2000/svg"><path d="m28.2 0h-24.4c-2.1 0-3.8 1.7-3.8 3.8v24.4c0 2.1 1.7 3.8 3.8 3.8h24.4c2.1 0 3.8-1.7 3.8-3.8v-24.4c0-2.1-1.7-3.8-3.8-3.8zm-4.2 4h3c.6 0 1 .4 1 1v3c0 .6-.4 1-1 1h-3c-.6 0-1-.4-1-1v-3c0-.6.4-1 1-1zm-8 5.9c3.4 0 6.2 2.7 6.2 6.1s-2.8 6.1-6.2 6.1-6.2-2.7-6.2-6.1c.1-3.4 2.8-6.1 6.2-6.1zm12 19.1h-24c-.6 0-1-.4-1-1v-15h4c-.5.8-.7 2.1-.7 3 0 5.4 4.4 9.7 9.7 9.7 5.4 0 9.7-4.4 9.7-9.7 0-.9-.1-2.3-.8-3h4v15c.1.6-.3 1-.9 1z"/></svg>