<svg height="190" viewBox="0 0 190 190" width="190" xmlns="http://www.w3.org/2000/svg" xmlns:xlink="http://www.w3.org/1999/xlink"><mask id="a"><path d="m190 95c0 52.467-42.533 95-95 95-52.4671 0-95-42.533-95-95 0-52.4671 42.5329-95 95-95 52.467 0 95 42.5329 95 95z" fill="#fff" transform="translate(61 613)"/></mask><mask id="b"><path d="m0 3c0-1.65685 1.34315-3 3-3h84c1.6569 0 3 1.34315 3 3v84c0 1.6569-1.3431 3-3 3h-84c-1.65685 0-3-1.3431-3-3z" fill="#fff" transform="translate(111 663)"/></mask><g mask="url(#a)" transform="translate(-61 -613)"><path d="m188 95c0 51.362-41.638 93-93 93v4c53.572 0 97-43.428 97-97zm-93 93c-51.3625 0-93-41.638-93-93h-4c0 53.572 43.4284 97 97 97zm-93-93c0-51.3625 41.6375-93 93-93v-4c-53.5716 0-97 43.4284-97 97zm93-93c51.362 0 93 41.6375 93 93h4c0-53.5716-43.428-97-97-97z" fill="#9ea1a6" transform="translate(61 613)"/></g><g opacity=".5"><g mask="url(#b)" transform="translate(-61 -613)"><path d="m3 2h84v-4h-84zm85 1v84h4v-84zm-1 85h-84v4h84zm-85-1v-84h-4v84zm1-89c-2.761424 0-5 2.238576-5 5h4c0-.55228.44772-1 1-1zm84 4c.5523 0 1 .44772 1 1h4c0-2.761424-2.2386-5-5-5zm1 85c0 .5523-.4477 1-1 1v4c2.7614 0 5-2.2386 5-5zm-85 1c-.55228 0-1-.4477-1-1h-4c0 2.7614 2.238576 5 5 5z" fill="#c6c8cc" transform="translate(111 663)"/></g><g fill="#c6c8cc"><path d="m-.460815 18.6125c-.490151.2545-.681185.8582-.426681 1.3483.254501.4902.8581607.6812 1.348311.4267zm26.460815-12.6125.515-.85719c-.2979-.17898-.6674-.19046-.9758-.03031zm16.8108 10.1-.515.8572c.3312.199.7474.1894 1.0691-.0247zm24.1892-16.1.6842-.729321c-.3387-.317749-.8517-.360479-1.2383-.103144zm20.3158 20.4293c.4028.3779 1.0357.3577 1.4135-.0451.3779-.4028.3577-1.0357-.0451-1.4135zm-86.854985-.0418 25.999985-13.5-.9216-1.775-26.000015 13.5zm25.024185-13.53031 16.8108 10.10001 1.03-1.7144-16.8108-10.09999zm17.8799 10.07531 24.1892-16.100035-1.1082-1.66493-24.1892 16.099965zm22.9509-16.203179 21 19.699979 1.3684-1.4586-21-19.700021z" transform="translate(51 96.5)"/><path d="m14 7.5c0 3.5899-2.9101 6.5-6.5 6.5v2c4.6944 0 8.5-3.8056 8.5-8.5zm-6.5 6.5c-3.58985 0-6.5-2.9101-6.5-6.5h-2c0 4.6944 3.80558 8.5 8.5 8.5zm-6.5-6.5c0-3.58985 2.91015-6.5 6.5-6.5v-2c-4.69442 0-8.5 3.80558-8.5 8.5zm6.5-6.5c3.5899 0 6.5 2.91015 6.5 6.5h2c0-4.69442-3.8056-8.5-8.5-8.5z" transform="translate(68 77)"/></g></g></svg>