<svg viewBox="0 0 109 24" xmlns="http://www.w3.org/2000/svg"><g fill="#f40"><path d="m22.735 23.171c.283.323.053.829-.376.829h-5.907c-.285 0-.556-.121-.745-.333l-9.414-10.526v10.36c0 .276-.224.5-.5.5h-5.293c-.276 0-.5-.224-.5-.5v-23c0-.276.224-.5.5-.5h5.293c.276 0 .5.224.5.5v9.815l9.141-9.99c.19-.207.457-.325.738-.325h5.762c.437 0 .664.521.366.841l-9.851 10.563 10.287 11.767z"/><path d="m45.991 24c-.199 0-.38-.118-.459-.301l-2.024-4.669h-10.67l-2.024 4.669c-.079.183-.259.301-.459.301h-5.212c-.366 0-.608-.381-.453-.712l10.782-23c.082-.176.259-.288.453-.288h4.358c.194 0 .37.112.453.287l10.815 23c.156.332-.086.713-.452.713zm-11.135-9.668h6.635l-3.317-7.694-3.317 7.694z"/><path d="m55.525 24c-.276 0-.5-.224-.5-.5v-23c0-.276.224-.5.5-.5h5.293c.276 0 .5.224.5.5v18.428h9.759c.276 0 .5.224.5.5v4.072c0 .276-.224.5-.5.5z"/><path d="m75.279.5c0-.276.224-.5.5-.5h9.315c2.667 0 4.959.477 6.874 1.43 1.938.953 3.42 2.338 4.446 4.153 1.026 1.793 1.539 3.926 1.539 6.4 0 2.496-.513 4.652-1.539 6.468-1.003 1.793-2.474 3.166-4.412 4.119-1.915.953-4.218 1.43-6.908 1.43h-9.315c-.276 0-.5-.224-.5-.5zm9.37 18.462c2.371 0 4.138-.579 5.301-1.736s1.744-2.905 1.744-5.242c0-2.338-.581-4.074-1.744-5.209-1.163-1.157-2.93-1.736-5.301-1.736h-3.078v13.923z"/><path d="m102.913 24c-.276 0-.5-.224-.5-.5v-23c0-.276.224-.5.5-.5h5.293c.276 0 .5.224.5.5v23c0 .276-.224.5-.5.5z"/></g></svg>